<svg id="Ebene_1" data-name="Ebene 1" xmlns="http://www.w3.org/2000/svg" xmlns:xlink="http://www.w3.org/1999/xlink" viewBox="0 0 1197.27 1280"><defs><style>.cls-1{fill:url(#Unbenannter_Verlauf_2);}</style><linearGradient id="Unbenannter_Verlauf_2" x1="542.22" y1="784.36" x2="542.22" y2="766.83" gradientTransform="matrix(68.28, 0, 0, -73, -36423.01, 57255.4)" gradientUnits="userSpaceOnUse"><stop offset="0" stop-color="#0093ff"/><stop offset="0.5" stop-color="#00fff5"/><stop offset="1" stop-color="#1890fb"/></linearGradient></defs><g id="Gruppe_377" data-name="Gruppe 377"><path id="Pfad_453" data-name="Pfad 453" class="cls-1" d="M977.9,640l37.76-42.52,172.69-194.24a35.42,35.42,0,0,0,1.19-45.59L914,13.29A35.36,35.36,0,0,0,886.41,0H310.87a35.37,35.37,0,0,0-27.64,13.29L7.74,357.68a35.39,35.39,0,0,0,1.19,45.59L181.61,597.51,219.37,640l-37.76,42.46L8.93,876.73a35.39,35.39,0,0,0-1.19,45.59l275.49,344.39A35.45,35.45,0,0,0,310.87,1280h575.5A35.46,35.46,0,0,0,914,1266.71L1189.5,922.32a35.39,35.39,0,0,0-1.19-45.59L1015.62,682.49ZM196.66,352.67l156.06-195a35.41,35.41,0,0,1,27.64-13.27H817a35.41,35.41,0,0,1,27.63,13.27l156.06,195a35.37,35.37,0,0,1-1.19,45.59L907.71,501.47l-26.46,29.71-256.15-288a35.39,35.39,0,0,0-50-2.95,37.32,37.32,0,0,0-2.95,2.95l-256.1,288.1-26.46-29.7L197.85,398.35A35.37,35.37,0,0,1,196.66,352.67ZM784.58,640,625,819.44a35.4,35.4,0,0,1-50,2.92,35,35,0,0,1-2.92-2.92L412.54,640,572.11,460.58a35.38,35.38,0,0,1,52.9,0ZM817,1135.54H380.34a35.4,35.4,0,0,1-27.64-13.29L196.64,927.31a35.39,35.39,0,0,1,1.19-45.59l91.78-103.21,26.46-29.7L572.17,1037a35.39,35.39,0,0,0,50,3,37.32,37.32,0,0,0,3-3l256-288.25,26.46,29.71,91.78,103.21a35.38,35.38,0,0,1,1.19,45.59L844.48,1122.2A35.44,35.44,0,0,1,817,1135.53Z"/></g></svg>